<svg width="807" height="136" viewBox="0 0 807 136" fill="none" xmlns="http://www.w3.org/2000/svg">
<path d="M35.8 131.75C32.1 131.75 29.45 130.95 27.85 129.35C26.25 127.65 25.45 124.5 25.45 119.9C25.45 116.8 25.75 113.05 26.35 108.65C26.95 104.25 28 97.6 29.5 88.7C29.7 87.5 30.5 82.65 31.9 74.15C33.3 65.55 34.55 56.55 35.65 47.15C36.65 39.15 37.15 33.15 37.15 29.15C37.15 24.65 35.5 22.4 32.2 22.4C29.7 22.4 26.55 23.75 22.75 26.45C19.05 29.05 15.05 33.25 10.75 39.05C9.35 40.95 7.8 41.9 6.1 41.9C4.7 41.9 3.45 41.25 2.35 39.95C1.35 38.55 0.85 37 0.85 35.3C0.85 33.6 1.15 32 1.75 30.5C2.35 28.9 3.45 27 5.05 24.8C9.95 18.1 15.4 12.95 21.4 9.34999C27.4 5.64999 33.7 3.79999 40.3 3.79999C45.8 3.79999 49.9 5.49999 52.6 8.9C55.4 12.3 56.8 17.25 56.8 23.75C56.8 29.55 56 37.95 54.4 48.95C59.4 34.15 65.75 22.95 73.45 15.35C81.15 7.64999 90.2 3.79999 100.6 3.79999C108.8 3.79999 114.95 6.14999 119.05 10.85C123.25 15.45 125.35 21.65 125.35 29.45C125.35 33.85 124.7 39.2 123.4 45.5L114.25 88.4C113.25 93.4 112.75 97.7 112.75 101.3C112.75 105.5 113.7 108.65 115.6 110.75C117.6 112.85 120.35 113.9 123.85 113.9C127.15 113.9 130.35 112.8 133.45 110.6C136.65 108.4 140.4 104.75 144.7 99.65C145.9 98.25 147.25 97.55 148.75 97.55C150.05 97.55 151.05 98.15 151.75 99.35C152.55 100.55 152.95 102.2 152.95 104.3C152.95 108.2 152 111.3 150.1 113.6C144.9 119.9 139.75 124.5 134.65 127.4C129.55 130.3 124.2 131.75 118.6 131.75C110.1 131.75 103.45 129.25 98.65 124.25C93.85 119.15 91.45 112.35 91.45 103.85C91.45 100.55 91.7 96.95 92.2 93.05C92.8 89.15 93.75 84.2 95.05 78.2L101.05 50.75C101.25 49.85 101.6 48.25 102.1 45.95C102.6 43.65 103 41.5 103.3 39.5C103.6 37.4 103.75 35.35 103.75 33.35C103.75 30.15 102.85 27.6 101.05 25.7C99.25 23.8 96.7 22.85 93.4 22.85C87.4 22.85 81.4 26.05 75.4 32.45C69.4 38.85 63.85 49.2 58.75 63.5C53.65 77.7 49.65 95.9 46.75 118.1C46.05 123.2 45 126.75 43.6 128.75C42.3 130.75 39.7 131.75 35.8 131.75ZM156.068 131.75C151.568 131.75 147.868 129.7 144.968 125.6C142.168 121.4 140.768 116.2 140.768 110C140.768 102.5 141.268 95.65 142.268 89.45C143.268 83.15 144.918 76.5 147.218 69.5C148.218 66.5 149.618 64.35 151.418 63.05C153.218 61.75 156.068 61.1 159.968 61.1C162.168 61.1 163.668 61.45 164.468 62.15C165.368 62.85 165.818 63.9 165.818 65.3C165.818 66.1 165.268 68.8 164.168 73.4C163.168 77.1 162.368 80.45 161.768 83.45C159.768 93.95 158.768 100.95 158.768 104.45C158.768 106.55 159.018 108.05 159.518 108.95C160.018 109.75 160.818 110.15 161.918 110.15C163.418 110.15 165.268 108.65 167.468 105.65C169.768 102.65 172.168 98.1 174.668 92C177.268 85.9 179.768 78.4 182.168 69.5C182.968 66.5 184.168 64.35 185.768 63.05C187.468 61.75 189.968 61.1 193.268 61.1C195.568 61.1 197.168 61.4 198.068 62C198.968 62.5 199.418 63.5 199.418 65C199.418 67.5 198.168 74.35 195.668 85.55C192.868 98.35 191.468 106.25 191.468 109.25C191.468 111.15 191.868 112.65 192.668 113.75C193.468 114.75 194.518 115.25 195.818 115.25C197.818 115.25 200.168 114.05 202.868 111.65C205.668 109.15 209.368 105.15 213.968 99.65C215.168 98.25 216.518 97.55 218.018 97.55C219.318 97.55 220.318 98.15 221.018 99.35C221.818 100.55 222.218 102.2 222.218 104.3C222.218 108.3 221.268 111.4 219.368 113.6C215.068 118.9 210.418 123.25 205.418 126.65C200.518 130.05 194.918 131.75 188.618 131.75C183.818 131.75 180.268 129.9 177.968 126.2C175.768 122.5 174.668 117.3 174.668 110.6C172.968 117.4 170.418 122.65 167.018 126.35C163.618 129.95 159.968 131.75 156.068 131.75ZM220.705 131.75C216.905 131.75 214.205 129.75 212.605 125.75C211.105 121.75 210.355 115.35 210.355 106.55C210.355 93.55 212.205 81.2 215.905 69.5C216.805 66.6 218.255 64.5 220.255 63.2C222.355 61.8 225.255 61.1 228.955 61.1C230.955 61.1 232.355 61.35 233.155 61.85C233.955 62.35 234.355 63.3 234.355 64.7C234.355 66.3 233.605 69.9 232.105 75.5C231.105 79.5 230.305 83 229.705 86C229.105 88.9 228.605 92.55 228.205 96.95C230.905 89.15 234.105 82.55 237.805 77.15C241.605 71.75 245.455 67.75 249.355 65.15C253.355 62.45 257.105 61.1 260.605 61.1C264.105 61.1 266.555 61.9 267.955 63.5C269.455 65.1 270.205 67.55 270.205 70.85C270.205 74.05 269.255 79.85 267.355 88.25C266.555 91.85 266.005 94.55 265.705 96.35C270.705 84.05 276.255 75.1 282.355 69.5C288.455 63.9 294.155 61.1 299.455 61.1C305.955 61.1 309.205 64.35 309.205 70.85C309.205 74.75 308.105 81.8 305.905 92C304.005 100.7 303.055 106.45 303.055 109.25C303.055 113.25 304.505 115.25 307.405 115.25C309.405 115.25 311.755 114.05 314.455 111.65C317.255 109.15 320.955 105.15 325.555 99.65C326.755 98.25 328.105 97.55 329.605 97.55C330.905 97.55 331.905 98.15 332.605 99.35C333.405 100.55 333.805 102.2 333.805 104.3C333.805 108.3 332.855 111.4 330.955 113.6C326.655 118.9 322.005 123.25 317.005 126.65C312.105 130.05 306.505 131.75 300.205 131.75C295.105 131.75 291.255 130.3 288.655 127.4C286.055 124.4 284.755 120.1 284.755 114.5C284.755 111.7 285.455 106.7 286.855 99.5C288.155 93.2 288.805 88.85 288.805 86.45C288.805 84.85 288.255 84.05 287.155 84.05C285.855 84.05 284.005 85.75 281.605 89.15C279.205 92.45 276.805 96.85 274.405 102.35C272.005 107.85 270.055 113.65 268.555 119.75C267.455 124.55 266.155 127.75 264.655 129.35C263.255 130.95 260.955 131.75 257.755 131.75C254.455 131.75 251.955 130.2 250.255 127.1C248.655 123.9 247.855 120.05 247.855 115.55C247.855 111.75 248.355 106.25 249.355 99.05C250.155 92.65 250.555 88.45 250.555 86.45C250.555 84.85 250.005 84.05 248.905 84.05C247.405 84.05 245.505 85.85 243.205 89.45C240.905 93.05 238.655 97.65 236.455 103.25C234.355 108.85 232.655 114.35 231.355 119.75C230.255 124.45 228.955 127.65 227.455 129.35C226.055 130.95 223.805 131.75 220.705 131.75ZM341.327 51.2C337.127 51.2 333.977 50.25 331.877 48.35C329.777 46.35 328.727 43.6 328.727 40.1C328.727 36.6 330.077 33.7 332.777 31.4C335.577 29 339.027 27.8 343.127 27.8C346.827 27.8 349.827 28.7 352.127 30.5C354.427 32.3 355.577 34.85 355.577 38.15C355.577 42.15 354.277 45.35 351.677 47.75C349.077 50.05 345.627 51.2 341.327 51.2ZM340.127 131.75C333.627 131.75 328.877 129.45 325.877 124.85C322.977 120.25 321.527 114.15 321.527 106.55C321.527 102.05 322.077 96.3 323.177 89.3C324.377 82.2 325.877 75.6 327.677 69.5C328.577 66.3 329.777 64.1 331.277 62.9C332.777 61.7 335.177 61.1 338.477 61.1C343.577 61.1 346.127 62.8 346.127 66.2C346.127 68.7 345.177 74.5 343.277 83.6C340.877 94.6 339.677 102.05 339.677 105.95C339.677 108.95 340.077 111.25 340.877 112.85C341.677 114.45 343.027 115.25 344.927 115.25C346.727 115.25 348.977 114 351.677 111.5C354.377 109 357.977 105.05 362.477 99.65C363.677 98.25 365.027 97.55 366.527 97.55C367.827 97.55 368.827 98.15 369.527 99.35C370.327 100.55 370.727 102.2 370.727 104.3C370.727 108.3 369.777 111.4 367.877 113.6C357.977 125.7 348.727 131.75 340.127 131.75ZM386.491 135.05C381.291 135.05 377.291 133.85 374.491 131.45C371.791 129.05 370.441 126.35 370.441 123.35C370.441 120.75 371.391 118.5 373.291 116.6C375.191 114.7 377.991 113.75 381.691 113.75C382.991 113.75 384.491 113.9 386.191 114.2C387.991 114.4 389.341 114.55 390.241 114.65C390.141 112.05 389.541 109.6 388.441 107.3C387.441 105 386.141 102.8 384.541 100.7C382.941 98.5 381.441 96.6 380.041 95C376.941 100.9 373.841 105.8 370.741 109.7C367.741 113.6 364.441 117.3 360.841 120.8C359.041 122.6 357.141 123.5 355.141 123.5C353.541 123.5 352.241 122.95 351.241 121.85C350.241 120.65 349.741 119.2 349.741 117.5C349.741 115.5 350.441 113.65 351.841 111.95L353.791 109.55C359.291 102.75 363.441 97.15 366.241 92.75C367.941 89.85 369.941 86 372.241 81.2C374.541 76.3 376.791 71.25 378.991 66.05C380.891 61.65 384.841 59.45 390.841 59.45C393.641 59.45 395.591 59.7 396.691 60.2C397.791 60.7 398.341 61.5 398.341 62.6C398.341 63.2 398.141 64.15 397.741 65.45C397.341 66.75 396.791 68.05 396.091 69.35C394.291 72.95 393.391 76 393.391 78.5C393.391 80 393.891 81.65 394.891 83.45C395.991 85.25 397.641 87.5 399.841 90.2C403.041 94.4 405.441 98 407.041 101C408.741 103.9 409.591 107.1 409.591 110.6C409.591 111.6 409.491 113 409.291 114.8C414.191 112.9 419.941 107.85 426.541 99.65C427.741 98.25 429.091 97.55 430.591 97.55C431.891 97.55 432.891 98.15 433.591 99.35C434.391 100.55 434.791 102.2 434.791 104.3C434.791 108.1 433.841 111.2 431.941 113.6C426.941 119.8 422.141 124.05 417.541 126.35C413.041 128.55 407.441 129.75 400.741 129.95C396.741 133.35 391.991 135.05 386.491 135.05ZM433.254 131.75C429.454 131.75 426.754 129.75 425.154 125.75C423.654 121.75 422.904 115.35 422.904 106.55C422.904 93.55 424.754 81.2 428.454 69.5C429.354 66.6 430.804 64.5 432.804 63.2C434.904 61.8 437.804 61.1 441.504 61.1C443.504 61.1 444.904 61.35 445.704 61.85C446.504 62.35 446.904 63.3 446.904 64.7C446.904 66.3 446.154 69.9 444.654 75.5C443.654 79.5 442.854 83 442.254 86C441.654 88.9 441.154 92.55 440.754 96.95C443.454 89.15 446.654 82.55 450.354 77.15C454.154 71.75 458.004 67.75 461.904 65.15C465.904 62.45 469.654 61.1 473.154 61.1C476.654 61.1 479.104 61.9 480.504 63.5C482.004 65.1 482.754 67.55 482.754 70.85C482.754 74.05 481.804 79.85 479.904 88.25C479.104 91.85 478.554 94.55 478.254 96.35C483.254 84.05 488.804 75.1 494.904 69.5C501.004 63.9 506.704 61.1 512.004 61.1C518.504 61.1 521.754 64.35 521.754 70.85C521.754 74.75 520.654 81.8 518.454 92C516.554 100.7 515.604 106.45 515.604 109.25C515.604 113.25 517.054 115.25 519.954 115.25C521.954 115.25 524.304 114.05 527.004 111.65C529.804 109.15 533.504 105.15 538.104 99.65C539.304 98.25 540.654 97.55 542.154 97.55C543.454 97.55 544.454 98.15 545.154 99.35C545.954 100.55 546.354 102.2 546.354 104.3C546.354 108.3 545.404 111.4 543.504 113.6C539.204 118.9 534.554 123.25 529.554 126.65C524.654 130.05 519.054 131.75 512.754 131.75C507.654 131.75 503.804 130.3 501.204 127.4C498.604 124.4 497.304 120.1 497.304 114.5C497.304 111.7 498.004 106.7 499.404 99.5C500.704 93.2 501.354 88.85 501.354 86.45C501.354 84.85 500.804 84.05 499.704 84.05C498.404 84.05 496.554 85.75 494.154 89.15C491.754 92.45 489.354 96.85 486.954 102.35C484.554 107.85 482.604 113.65 481.104 119.75C480.004 124.55 478.704 127.75 477.204 129.35C475.804 130.95 473.504 131.75 470.304 131.75C467.004 131.75 464.504 130.2 462.804 127.1C461.204 123.9 460.404 120.05 460.404 115.55C460.404 111.75 460.904 106.25 461.904 99.05C462.704 92.65 463.104 88.45 463.104 86.45C463.104 84.85 462.554 84.05 461.454 84.05C459.954 84.05 458.054 85.85 455.754 89.45C453.454 93.05 451.204 97.65 449.004 103.25C446.904 108.85 445.204 114.35 443.904 119.75C442.804 124.45 441.504 127.65 440.004 129.35C438.604 130.95 436.354 131.75 433.254 131.75ZM552.675 131.75C546.475 131.75 541.525 129.5 537.825 125C534.125 120.5 532.275 114.6 532.275 107.3C532.275 99.3 534.125 91.75 537.825 84.65C541.525 77.45 546.425 71.7 552.525 67.4C558.725 63 565.275 60.8 572.175 60.8C574.375 60.8 575.825 61.25 576.525 62.15C577.325 62.95 577.975 64.45 578.475 66.65C580.575 66.25 582.775 66.05 585.075 66.05C589.975 66.05 592.425 67.8 592.425 71.3C592.425 73.4 591.675 78.4 590.175 86.3C587.875 97.8 586.725 105.8 586.725 110.3C586.725 111.8 587.075 113 587.775 113.9C588.575 114.8 589.575 115.25 590.775 115.25C592.675 115.25 594.975 114.05 597.675 111.65C600.375 109.15 604.025 105.15 608.625 99.65C609.825 98.25 611.175 97.55 612.675 97.55C613.975 97.55 614.975 98.15 615.675 99.35C616.475 100.55 616.875 102.2 616.875 104.3C616.875 108.3 615.925 111.4 614.025 113.6C609.925 118.7 605.575 123 600.975 126.5C596.375 130 591.925 131.75 587.625 131.75C584.325 131.75 581.275 130.65 578.475 128.45C575.775 126.15 573.725 123.05 572.325 119.15C567.125 127.55 560.575 131.75 552.675 131.75ZM558.075 116.6C560.275 116.6 562.375 115.3 564.375 112.7C566.375 110.1 567.825 106.65 568.725 102.35L574.275 74.75C570.075 74.85 566.175 76.45 562.575 79.55C559.075 82.55 556.275 86.55 554.175 91.55C552.075 96.55 551.025 101.85 551.025 107.45C551.025 110.55 551.625 112.85 552.825 114.35C554.125 115.85 555.875 116.6 558.075 116.6ZM671.584 97.55C672.884 97.55 673.884 98.15 674.584 99.35C675.384 100.55 675.784 102.2 675.784 104.3C675.784 108.3 674.834 111.4 672.934 113.6C668.634 118.9 663.934 123.25 658.834 126.65C653.734 130.05 647.884 131.75 641.284 131.75C620.884 131.75 610.684 117.4 610.684 88.7C610.684 84.3 610.834 79.85 611.134 75.35H605.284C602.284 75.35 600.234 74.8 599.134 73.7C598.134 72.6 597.634 70.85 597.634 68.45C597.634 62.85 599.884 60.05 604.384 60.05H612.934C614.634 49.05 617.234 39 620.734 29.9C624.234 20.8 628.434 13.55 633.334 8.14999C638.334 2.74999 643.684 0.0499961 649.384 0.0499961C653.584 0.0499961 656.884 1.9 659.284 5.6C661.684 9.3 662.884 13.95 662.884 19.55C662.884 35.05 656.384 48.55 643.384 60.05H660.184C661.784 60.05 662.934 60.4 663.634 61.1C664.334 61.8 664.684 63.1 664.684 65C664.684 71.9 659.034 75.35 647.734 75.35H629.434C629.234 80.35 629.134 84.25 629.134 87.05C629.134 97.45 630.334 104.75 632.734 108.95C635.234 113.15 639.134 115.25 644.434 115.25C648.734 115.25 652.534 113.95 655.834 111.35C659.134 108.75 663.034 104.85 667.534 99.65C668.734 98.25 670.084 97.55 671.584 97.55ZM645.334 14.45C643.834 14.45 642.134 16.35 640.234 20.15C638.434 23.85 636.684 29.05 634.984 35.75C633.384 42.35 632.034 49.7 630.934 57.8C636.834 52.7 641.234 47 644.134 40.7C647.134 34.3 648.634 28.5 648.634 23.3C648.634 17.4 647.534 14.45 645.334 14.45ZM683.221 51.2C679.021 51.2 675.871 50.25 673.771 48.35C671.671 46.35 670.621 43.6 670.621 40.1C670.621 36.6 671.971 33.7 674.671 31.4C677.471 29 680.921 27.8 685.021 27.8C688.721 27.8 691.721 28.7 694.021 30.5C696.321 32.3 697.471 34.85 697.471 38.15C697.471 42.15 696.171 45.35 693.571 47.75C690.971 50.05 687.521 51.2 683.221 51.2ZM682.021 131.75C675.521 131.75 670.771 129.45 667.771 124.85C664.871 120.25 663.421 114.15 663.421 106.55C663.421 102.05 663.971 96.3 665.071 89.3C666.271 82.2 667.771 75.6 669.571 69.5C670.471 66.3 671.671 64.1 673.171 62.9C674.671 61.7 677.071 61.1 680.371 61.1C685.471 61.1 688.021 62.8 688.021 66.2C688.021 68.7 687.071 74.5 685.171 83.6C682.771 94.6 681.571 102.05 681.571 105.95C681.571 108.95 681.971 111.25 682.771 112.85C683.571 114.45 684.921 115.25 686.821 115.25C688.621 115.25 690.871 114 693.571 111.5C696.271 109 699.871 105.05 704.371 99.65C705.571 98.25 706.921 97.55 708.421 97.55C709.721 97.55 710.721 98.15 711.421 99.35C712.221 100.55 712.621 102.2 712.621 104.3C712.621 108.3 711.671 111.4 709.771 113.6C699.871 125.7 690.621 131.75 682.021 131.75ZM729.135 131.75C719.335 131.75 711.685 129 706.185 123.5C700.785 117.9 698.085 110.55 698.085 101.45C698.085 93.35 699.685 86.25 702.885 80.15C706.085 74.05 710.235 69.35 715.335 66.05C720.435 62.75 725.785 61.1 731.385 61.1C736.885 61.1 741.135 62.75 744.135 66.05C747.235 69.25 748.785 73.4 748.785 78.5C748.785 82.7 747.835 86.25 745.935 89.15C744.135 92.05 741.735 93.5 738.735 93.5C736.835 93.5 735.285 93.05 734.085 92.15C732.985 91.25 732.435 90 732.435 88.4C732.435 87.7 732.535 86.9 732.735 86C732.935 85.1 733.085 84.45 733.185 84.05C733.685 82.55 733.935 81.15 733.935 79.85C733.935 78.55 733.585 77.55 732.885 76.85C732.285 76.15 731.385 75.8 730.185 75.8C727.885 75.8 725.735 76.85 723.735 78.95C721.735 80.95 720.135 83.7 718.935 87.2C717.735 90.7 717.135 94.55 717.135 98.75C717.135 110.35 722.185 116.15 732.285 116.15C736.385 116.15 740.785 114.8 745.485 112.1C750.285 109.3 754.985 105.15 759.585 99.65C760.785 98.25 762.135 97.55 763.635 97.55C764.935 97.55 765.935 98.15 766.635 99.35C767.435 100.55 767.835 102.2 767.835 104.3C767.835 108.1 766.885 111.2 764.985 113.6C760.285 119.4 754.635 123.9 748.035 127.1C741.535 130.2 735.235 131.75 729.135 131.75ZM783.61 135.05C778.41 135.05 774.41 133.85 771.61 131.45C768.91 129.05 767.56 126.35 767.56 123.35C767.56 120.75 768.51 118.5 770.41 116.6C772.31 114.7 775.11 113.75 778.81 113.75C780.11 113.75 781.61 113.9 783.31 114.2C785.11 114.4 786.46 114.55 787.36 114.65C787.26 112.05 786.66 109.6 785.56 107.3C784.56 105 783.26 102.8 781.66 100.7C780.06 98.5 778.56 96.6 777.16 95C774.06 100.9 770.96 105.8 767.86 109.7C764.86 113.6 761.56 117.3 757.96 120.8C756.16 122.6 754.26 123.5 752.26 123.5C750.66 123.5 749.36 122.95 748.36 121.85C747.36 120.65 746.86 119.2 746.86 117.5C746.86 115.5 747.56 113.65 748.96 111.95L750.91 109.55C756.41 102.75 760.56 97.15 763.36 92.75C765.16 89.85 766.96 86.4 768.76 82.4C770.66 78.4 773.11 72.95 776.11 66.05C778.01 61.65 781.96 59.45 787.96 59.45C790.76 59.45 792.71 59.7 793.81 60.2C794.91 60.7 795.46 61.5 795.46 62.6C795.46 63.2 795.26 64.15 794.86 65.45C794.46 66.75 793.91 68.05 793.21 69.35C791.41 72.95 790.51 76 790.51 78.5C790.51 80 791.01 81.65 792.01 83.45C793.11 85.25 794.76 87.5 796.96 90.2C800.16 94.4 802.56 98 804.16 101C805.86 103.9 806.71 107.1 806.71 110.6C806.71 114.8 805.71 118.8 803.71 122.6C801.81 126.3 799.11 129.3 795.61 131.6C792.11 133.9 788.11 135.05 783.61 135.05Z" fill="white"/>
</svg>
